<mxfile host="app.diagrams.net" agent="Mozilla/5.0 (Windows NT 10.0; Win64; x64) AppleWebKit/537.36 (KHTML, like Gecko) Chrome/131.0.0.0 Safari/537.36" version="26.0.6">
  <diagram name="Pàgina-1" id="m1wEJBmJibJ_jTTaEZHH">
    <mxGraphModel dx="1229" dy="630" grid="1" gridSize="10" guides="1" tooltips="1" connect="1" arrows="1" fold="1" page="1" pageScale="1" pageWidth="827" pageHeight="1169" math="0" shadow="0">
      <root>
        <mxCell id="0" />
        <mxCell id="1" parent="0" />
        <mxCell id="hGZujK1NEiE-AWCSJ93N-4" style="edgeStyle=orthogonalEdgeStyle;rounded=0;orthogonalLoop=1;jettySize=auto;html=1;exitX=0.5;exitY=1;exitDx=0;exitDy=0;" edge="1" parent="1" source="hGZujK1NEiE-AWCSJ93N-1" target="hGZujK1NEiE-AWCSJ93N-3">
          <mxGeometry relative="1" as="geometry" />
        </mxCell>
        <mxCell id="hGZujK1NEiE-AWCSJ93N-1" value="Botiga" style="rounded=0;whiteSpace=wrap;html=1;fillColor=#dae8fc;strokeColor=#6c8ebf;" vertex="1" parent="1">
          <mxGeometry x="340" y="70" width="90" height="30" as="geometry" />
        </mxCell>
        <mxCell id="hGZujK1NEiE-AWCSJ93N-33" style="edgeStyle=orthogonalEdgeStyle;rounded=0;orthogonalLoop=1;jettySize=auto;html=1;entryX=0.5;entryY=0;entryDx=0;entryDy=0;" edge="1" parent="1" source="hGZujK1NEiE-AWCSJ93N-3" target="hGZujK1NEiE-AWCSJ93N-27">
          <mxGeometry relative="1" as="geometry">
            <Array as="points">
              <mxPoint x="385" y="320" />
              <mxPoint x="80" y="320" />
              <mxPoint x="80" y="370" />
            </Array>
          </mxGeometry>
        </mxCell>
        <mxCell id="hGZujK1NEiE-AWCSJ93N-34" style="edgeStyle=orthogonalEdgeStyle;rounded=0;orthogonalLoop=1;jettySize=auto;html=1;exitX=0.5;exitY=1;exitDx=0;exitDy=0;entryX=0.5;entryY=0;entryDx=0;entryDy=0;" edge="1" parent="1" source="hGZujK1NEiE-AWCSJ93N-3" target="hGZujK1NEiE-AWCSJ93N-19">
          <mxGeometry relative="1" as="geometry">
            <Array as="points">
              <mxPoint x="385" y="320" />
              <mxPoint x="175" y="320" />
            </Array>
          </mxGeometry>
        </mxCell>
        <mxCell id="hGZujK1NEiE-AWCSJ93N-35" style="edgeStyle=orthogonalEdgeStyle;rounded=0;orthogonalLoop=1;jettySize=auto;html=1;exitX=0.5;exitY=1;exitDx=0;exitDy=0;" edge="1" parent="1" source="hGZujK1NEiE-AWCSJ93N-3" target="hGZujK1NEiE-AWCSJ93N-20">
          <mxGeometry relative="1" as="geometry">
            <Array as="points">
              <mxPoint x="385" y="320" />
              <mxPoint x="280" y="320" />
            </Array>
          </mxGeometry>
        </mxCell>
        <mxCell id="hGZujK1NEiE-AWCSJ93N-43" style="edgeStyle=orthogonalEdgeStyle;rounded=0;orthogonalLoop=1;jettySize=auto;html=1;" edge="1" parent="1" source="hGZujK1NEiE-AWCSJ93N-3" target="hGZujK1NEiE-AWCSJ93N-21">
          <mxGeometry relative="1" as="geometry" />
        </mxCell>
        <mxCell id="hGZujK1NEiE-AWCSJ93N-78" style="edgeStyle=orthogonalEdgeStyle;rounded=0;orthogonalLoop=1;jettySize=auto;html=1;exitX=1;exitY=0.5;exitDx=0;exitDy=0;entryX=0;entryY=0.5;entryDx=0;entryDy=0;" edge="1" parent="1" source="hGZujK1NEiE-AWCSJ93N-3" target="hGZujK1NEiE-AWCSJ93N-11">
          <mxGeometry relative="1" as="geometry">
            <Array as="points">
              <mxPoint x="440" y="165" />
              <mxPoint x="440" y="210" />
            </Array>
          </mxGeometry>
        </mxCell>
        <mxCell id="hGZujK1NEiE-AWCSJ93N-79" style="edgeStyle=orthogonalEdgeStyle;rounded=0;orthogonalLoop=1;jettySize=auto;html=1;entryX=0;entryY=0.5;entryDx=0;entryDy=0;" edge="1" parent="1" source="hGZujK1NEiE-AWCSJ93N-3" target="hGZujK1NEiE-AWCSJ93N-9">
          <mxGeometry relative="1" as="geometry">
            <Array as="points">
              <mxPoint x="440" y="165" />
              <mxPoint x="440" y="78" />
            </Array>
          </mxGeometry>
        </mxCell>
        <mxCell id="hGZujK1NEiE-AWCSJ93N-80" style="edgeStyle=orthogonalEdgeStyle;rounded=0;orthogonalLoop=1;jettySize=auto;html=1;" edge="1" parent="1" source="hGZujK1NEiE-AWCSJ93N-3" target="hGZujK1NEiE-AWCSJ93N-53">
          <mxGeometry relative="1" as="geometry">
            <Array as="points">
              <mxPoint x="440" y="165" />
              <mxPoint x="440" y="138" />
            </Array>
          </mxGeometry>
        </mxCell>
        <mxCell id="hGZujK1NEiE-AWCSJ93N-81" style="edgeStyle=orthogonalEdgeStyle;rounded=0;orthogonalLoop=1;jettySize=auto;html=1;" edge="1" parent="1" source="hGZujK1NEiE-AWCSJ93N-3" target="hGZujK1NEiE-AWCSJ93N-46">
          <mxGeometry relative="1" as="geometry">
            <Array as="points">
              <mxPoint x="385" y="320" />
              <mxPoint x="495" y="320" />
            </Array>
          </mxGeometry>
        </mxCell>
        <mxCell id="hGZujK1NEiE-AWCSJ93N-3" value="Producte" style="rounded=0;whiteSpace=wrap;html=1;fillColor=#dae8fc;strokeColor=#6c8ebf;" vertex="1" parent="1">
          <mxGeometry x="340" y="150" width="90" height="30" as="geometry" />
        </mxCell>
        <mxCell id="hGZujK1NEiE-AWCSJ93N-9" value="Codi" style="ellipse;whiteSpace=wrap;html=1;fillColor=#d5e8d4;strokeColor=#82b366;" vertex="1" parent="1">
          <mxGeometry x="460" y="60" width="80" height="35" as="geometry" />
        </mxCell>
        <mxCell id="hGZujK1NEiE-AWCSJ93N-74" style="edgeStyle=orthogonalEdgeStyle;rounded=0;orthogonalLoop=1;jettySize=auto;html=1;entryX=0;entryY=0.5;entryDx=0;entryDy=0;" edge="1" parent="1" source="hGZujK1NEiE-AWCSJ93N-11" target="hGZujK1NEiE-AWCSJ93N-14">
          <mxGeometry relative="1" as="geometry" />
        </mxCell>
        <mxCell id="hGZujK1NEiE-AWCSJ93N-76" style="edgeStyle=orthogonalEdgeStyle;rounded=0;orthogonalLoop=1;jettySize=auto;html=1;" edge="1" parent="1" source="hGZujK1NEiE-AWCSJ93N-11" target="hGZujK1NEiE-AWCSJ93N-16">
          <mxGeometry relative="1" as="geometry" />
        </mxCell>
        <mxCell id="hGZujK1NEiE-AWCSJ93N-11" value="Secció" style="ellipse;whiteSpace=wrap;html=1;fillColor=#d5e8d4;strokeColor=#82b366;" vertex="1" parent="1">
          <mxGeometry x="460" y="190" width="80" height="40" as="geometry" />
        </mxCell>
        <mxCell id="hGZujK1NEiE-AWCSJ93N-14" value="Maquiatje" style="whiteSpace=wrap;html=1;fillColor=#fff2cc;strokeColor=#d6b656;" vertex="1" parent="1">
          <mxGeometry x="570" y="180" width="100" height="30" as="geometry" />
        </mxCell>
        <mxCell id="hGZujK1NEiE-AWCSJ93N-16" value="Labial" style="whiteSpace=wrap;html=1;fillColor=#fff2cc;strokeColor=#d6b656;" vertex="1" parent="1">
          <mxGeometry x="570" y="220" width="100" height="30" as="geometry" />
        </mxCell>
        <mxCell id="hGZujK1NEiE-AWCSJ93N-19" value="Descripcio" style="rounded=0;whiteSpace=wrap;html=1;fillColor=#dae8fc;strokeColor=#6c8ebf;" vertex="1" parent="1">
          <mxGeometry x="130" y="370" width="90" height="30" as="geometry" />
        </mxCell>
        <mxCell id="hGZujK1NEiE-AWCSJ93N-39" value="" style="edgeStyle=orthogonalEdgeStyle;rounded=0;orthogonalLoop=1;jettySize=auto;html=1;" edge="1" parent="1" source="hGZujK1NEiE-AWCSJ93N-20" target="hGZujK1NEiE-AWCSJ93N-38">
          <mxGeometry relative="1" as="geometry" />
        </mxCell>
        <mxCell id="hGZujK1NEiE-AWCSJ93N-20" value="Preu" style="rounded=0;whiteSpace=wrap;html=1;fillColor=#dae8fc;strokeColor=#6c8ebf;" vertex="1" parent="1">
          <mxGeometry x="240" y="370" width="90" height="30" as="geometry" />
        </mxCell>
        <mxCell id="hGZujK1NEiE-AWCSJ93N-21" value="Categori" style="rounded=0;whiteSpace=wrap;html=1;fillColor=#dae8fc;strokeColor=#6c8ebf;" vertex="1" parent="1">
          <mxGeometry x="340" y="370" width="90" height="30" as="geometry" />
        </mxCell>
        <mxCell id="hGZujK1NEiE-AWCSJ93N-27" value="Nom" style="rounded=0;whiteSpace=wrap;html=1;fillColor=#dae8fc;strokeColor=#6c8ebf;" vertex="1" parent="1">
          <mxGeometry x="30" y="370" width="90" height="30" as="geometry" />
        </mxCell>
        <mxCell id="hGZujK1NEiE-AWCSJ93N-41" value="" style="edgeStyle=orthogonalEdgeStyle;rounded=0;orthogonalLoop=1;jettySize=auto;html=1;" edge="1" parent="1" source="hGZujK1NEiE-AWCSJ93N-38" target="hGZujK1NEiE-AWCSJ93N-40">
          <mxGeometry relative="1" as="geometry" />
        </mxCell>
        <mxCell id="hGZujK1NEiE-AWCSJ93N-38" value="Moneda" style="ellipse;whiteSpace=wrap;html=1;fillColor=#d5e8d4;strokeColor=#82b366;" vertex="1" parent="1">
          <mxGeometry x="235" y="440" width="100" height="40" as="geometry" />
        </mxCell>
        <mxCell id="hGZujK1NEiE-AWCSJ93N-40" value="EUR" style="whiteSpace=wrap;html=1;fillColor=#fff2cc;strokeColor=#d6b656;" vertex="1" parent="1">
          <mxGeometry x="235" y="520" width="100" height="30" as="geometry" />
        </mxCell>
        <mxCell id="hGZujK1NEiE-AWCSJ93N-46" value="Imatge" style="rounded=0;whiteSpace=wrap;html=1;fillColor=#dae8fc;strokeColor=#6c8ebf;" vertex="1" parent="1">
          <mxGeometry x="450" y="370" width="90" height="30" as="geometry" />
        </mxCell>
        <mxCell id="hGZujK1NEiE-AWCSJ93N-66" value="" style="edgeStyle=orthogonalEdgeStyle;rounded=0;orthogonalLoop=1;jettySize=auto;html=1;" edge="1" parent="1" source="hGZujK1NEiE-AWCSJ93N-53" target="hGZujK1NEiE-AWCSJ93N-65">
          <mxGeometry relative="1" as="geometry" />
        </mxCell>
        <mxCell id="hGZujK1NEiE-AWCSJ93N-67" value="" style="edgeStyle=orthogonalEdgeStyle;rounded=0;orthogonalLoop=1;jettySize=auto;html=1;" edge="1" parent="1" source="hGZujK1NEiE-AWCSJ93N-53" target="hGZujK1NEiE-AWCSJ93N-65">
          <mxGeometry relative="1" as="geometry" />
        </mxCell>
        <mxCell id="hGZujK1NEiE-AWCSJ93N-68" value="" style="edgeStyle=orthogonalEdgeStyle;rounded=0;orthogonalLoop=1;jettySize=auto;html=1;" edge="1" parent="1" source="hGZujK1NEiE-AWCSJ93N-53" target="hGZujK1NEiE-AWCSJ93N-65">
          <mxGeometry relative="1" as="geometry" />
        </mxCell>
        <mxCell id="hGZujK1NEiE-AWCSJ93N-69" value="" style="edgeStyle=orthogonalEdgeStyle;rounded=0;orthogonalLoop=1;jettySize=auto;html=1;" edge="1" parent="1" source="hGZujK1NEiE-AWCSJ93N-53" target="hGZujK1NEiE-AWCSJ93N-65">
          <mxGeometry relative="1" as="geometry" />
        </mxCell>
        <mxCell id="hGZujK1NEiE-AWCSJ93N-70" style="edgeStyle=orthogonalEdgeStyle;rounded=0;orthogonalLoop=1;jettySize=auto;html=1;" edge="1" parent="1" source="hGZujK1NEiE-AWCSJ93N-53" target="hGZujK1NEiE-AWCSJ93N-64">
          <mxGeometry relative="1" as="geometry" />
        </mxCell>
        <mxCell id="hGZujK1NEiE-AWCSJ93N-53" value="Disponibilitat" style="ellipse;whiteSpace=wrap;html=1;fillColor=#d5e8d4;strokeColor=#82b366;" vertex="1" parent="1">
          <mxGeometry x="470" y="120" width="80" height="35" as="geometry" />
        </mxCell>
        <mxCell id="hGZujK1NEiE-AWCSJ93N-64" value="Esgotat" style="whiteSpace=wrap;html=1;fillColor=#fff2cc;strokeColor=#d6b656;" vertex="1" parent="1">
          <mxGeometry x="610" y="100" width="100" height="30" as="geometry" />
        </mxCell>
        <mxCell id="hGZujK1NEiE-AWCSJ93N-65" value="En estoc" style="whiteSpace=wrap;html=1;fillColor=#fff2cc;strokeColor=#d6b656;" vertex="1" parent="1">
          <mxGeometry x="610" y="140" width="100" height="30" as="geometry" />
        </mxCell>
      </root>
    </mxGraphModel>
  </diagram>
</mxfile>
